<svg width="50" height="47" fill="none" xmlns="http://www.w3.org/2000/svg"><path d="M1.977 19.143h44.706M32.597 2.069L32.273 2 2.553 18.629c-.257.14-.474.339-.631.578a1.66 1.66 0 00-.27.793v6c3.603 0 9.006 0 9.006 6s-5.511 6-9.006 6v5.143c0 .454.19.89.528 1.212.338.322.796.502 1.274.502h43.228c.478 0 .936-.18 1.274-.502.338-.321.528-.758.528-1.212v-24c-.528-4.04-2.327-7.833-5.163-10.88-2.836-3.049-6.574-5.208-10.724-6.194v0z" stroke="#81B82E" stroke-width="3" stroke-linecap="round" stroke-linejoin="round"/><path d="M35.875 29.429c.995 0 1.801-.768 1.801-1.715 0-.947-.806-1.714-1.8-1.714-.996 0-1.802.767-1.802 1.714s.806 1.715 1.801 1.715zm-12.608 6.857c.995 0 1.801-.768 1.801-1.715 0-.946-.806-1.714-1.801-1.714-.995 0-1.801.768-1.801 1.714 0 .947.806 1.715 1.8 1.715z" stroke="#81B82E" stroke-width="3" stroke-linecap="round" stroke-linejoin="round"/></svg>