<svg width="45" height="49" fill="none" xmlns="http://www.w3.org/2000/svg"><path d="M36.933 2h3.143c.834 0 1.633.361 2.222 1.004a3.59 3.59 0 01.921 2.425v3.428m-40.862 0V5.43c0-.91.331-1.782.92-2.425C3.868 2.361 4.668 2 5.5 2h3.144m9.429 0h9.43M43.22 19.143v9.428M2.357 19.143v10.286m0 10.285v3.429c0 .91.331 1.781.92 2.424.59.643 1.39 1.004 2.223 1.004h3.144m9.429 0h8.644m-.785-6.857c6.075 0 11-5.372 11-12 0-6.627-4.925-12-11-12-6.076 0-11.001 5.373-11.001 12 0 6.628 4.925 12 11 12zm7.763-3.531l7.953 8.674" stroke="#81B82E" stroke-width="3" stroke-linecap="round" stroke-linejoin="round"/></svg>