<svg width="48" height="49" fill="none" xmlns="http://www.w3.org/2000/svg"><path d="M38.717 14.56c0-3.429 0-6.857-.24-9.12a3.423 3.423 0 00-1.473-2.825 3.441 3.441 0 00-3.167-.398c-7.423 2.126-22.578 7.44-28.935 16.56-6.873 9.668-1.58 20.743.928 25.063a4.737 4.737 0 003.436 2.263c3.165.569 6.396.661 9.588.274m-1.821-16.629A175.225 175.225 0 007.479 45.52" stroke="#80B82C" stroke-width="3" stroke-linecap="round" stroke-linejoin="round"/><path d="M36.518 46.514a1.726 1.726 0 01-1.169 0 15.389 15.389 0 01-7.059-5.64 15.335 15.335 0 01-2.666-8.623v-6.343a1.608 1.608 0 011.077-1.488c.205-.073.424-.103.641-.089h17.183a1.617 1.617 0 011.58 1.577v6.343a15.335 15.335 0 01-2.609 8.593 15.388 15.388 0 01-6.978 5.67z" stroke="#80B82C" stroke-width="3" stroke-linecap="round" stroke-linejoin="round"/></svg>