<svg width="768" height="89" fill="none" xmlns="http://www.w3.org/2000/svg"><path d="M14.927 24.246c6-.847 8.928-1.198 14.928-1.88 12.705 23.048 18.892 34.49 31.08 57.703-7.724.847-11.503 1.363-19.226 2.396-1.038-2.045-1.536-3.077-2.74-5.122-7.391 1.033-11.149 1.363-18.54 2.396-.519 2.21-.851 3.407-1.204 5.803C11.502 86.575 7.723 87.07 0 88.268 5.834 62.824 8.761 50.02 15.114 24.597l-.166-.351h-.02zM12.52 78.87c.519-1.88.685-2.912 1.204-4.77 12.187-1.715 18.187-2.396 30.395-3.924.85 1.714 1.37 2.56 2.408 4.275 1.038 0 1.536-.165 2.574-.351-9.446-17.576-14.076-26.29-23.854-43.866-1.37.165-2.056.351-3.613.516-4.816 19.29-7.204 29.017-11.668 48.471 1.038 0 1.537-.165 2.575-.35h-.021zm11.149-46.096c7.723 14.168 11.668 21.169 19.225 35.336-11.502 1.364-17.336 2.21-28.838 3.76 3.779-15.697 5.668-23.38 9.447-39.096h.166zm8.408 31.743c-2.221-4.09-3.26-5.969-5.502-10.078-1.038 4.44-1.723 6.65-2.74 11.09 3.26-.517 4.983-.682 8.242-1.033v.02zm65.77-30.895c-1.536 0-2.242.166-3.612.351.85 7.683 1.038 14.333.685 19.806-.353 5.473-1.37 10.078-2.928 13.651-1.723 3.594-3.944 6.485-6.872 8.364-2.927 1.88-6.519 3.078-10.982 3.594-1.37 0-2.928.165-4.298.351-1.37.165-3.093 0-4.817 0-.685-6.32-1.204-9.562-1.889-15.882h2.222c1.889-.165 3.425-.846 4.816-1.879 1.37-1.033 2.409-2.726 3.094-5.287.685-2.56 1.038-5.969 1.038-10.244 0-4.275-.353-9.892-1.038-16.728-.166-1.88-.52-3.759-.685-5.803-.353-2.045-.686-4.275-1.038-6.485 18.373-2.045 27.467-3.077 45.84-4.77 2.409 24.245 3.426 36.533 5.834 60.779-8.242.847-12.54 1.198-20.782 2.045-1.723-16.729-2.574-25.093-4.297-41.821h-.353l.062-.042zM70.546 71.52s1.204 0 2.055-.165c2.409-.351 4.464-1.198 6.187-2.912 1.89-1.528 3.26-4.275 4.298-7.682 1.038-3.594 1.723-8.2 1.89-13.838.165-5.638 0-12.804-1.039-21.168 8.927-1.033 13.225-1.363 22.152-2.21 1.723 17.575 2.575 26.29 4.464 43.865 1.038 0 1.37 0 2.408-.165l-4.63-46.26c-10.816 1.03-16.131 1.525-26.948 2.723 0 .847.353 1.714.353 2.726s.166 1.88.353 2.726c.685 7.002 1.038 12.97.852 17.927-.167 4.956-.686 9.045-1.537 12.288-.851 3.242-2.055 5.638-3.778 7.166-1.537 1.528-3.426 2.561-5.502 2.726-.851 0-1.204 0-1.89.165 0 .847 0 1.363.167 2.21l.166-.165-.021.041zm109.37-26.291c.353 4.275 0 7.848-1.37 10.925-1.204 3.077-3.093 5.638-5.502 7.683-2.408 2.044-5.315 3.593-8.574 4.77-3.26 1.198-7.038 1.88-10.817 2.21-7.889.682-11.854 1.033-19.577 1.714-2.243-24.41-3.426-36.534-5.668-60.78 8.076-.681 12.02-1.032 20.076-1.714.519 5.804.685 8.716 1.204 14.519 3.945-.351 7.723-.165 11.336.351 3.612.516 6.685 1.714 9.446 3.242 2.74 1.529 4.983 3.924 6.685 6.65 1.723 2.913 2.741 6.32 3.093 10.575l-.352-.166.02.021zm-9.093.681c-.166-2.726-.851-5.121-2.055-7-1.205-1.88-2.575-3.408-4.464-4.606-1.889-1.198-3.945-1.88-6.519-2.396-2.408-.516-5.149-.516-7.889-.35-3.26.35-4.817.35-8.077.68-.519-5.803-.685-8.715-1.204-14.518-1.038 0-1.536 0-2.408.165 1.723 18.443 2.408 27.819 4.111 46.262 4.11-.352 6.187-.517 10.463-.847 2.741-.165 5.315-.847 7.724-1.528 2.221-.847 4.297-1.88 5.833-3.408 1.537-1.363 2.928-3.243 3.613-5.287.851-2.045 1.038-4.44.851-7.166h.021zm-2.575.166c.167 2.56 0 4.77-.851 6.65-.851 1.88-1.889 3.407-3.425 4.44-1.537 1.198-3.094 2.045-5.149 2.726-1.889.682-4.111 1.033-6.353 1.198-3.26.351-4.817.351-8.076.681-1.038-10.925-1.37-16.398-2.408-27.323 3.259-.35 4.816-.35 8.076-.681 2.221-.165 4.463 0 6.519 0 2.055.351 3.944.847 5.501 1.88 1.537.846 2.928 2.21 4.111 3.923 1.038 1.714 1.723 3.924 1.889 6.485h.166v.02zm-16.318 8.013h.851c2.575-.165 4.464-1.033 5.502-2.21 1.038-1.177 1.536-2.912 1.37-5.122-.166-2.044-.851-3.758-2.055-4.77-1.204-1.033-3.26-1.529-5.834-1.364h-.851c.519 5.473.685 8.014 1.204 13.486h-.166l-.021-.02zm34.339-47.253c6.685-.517 9.965-.682 16.65-1.198 7.204 8.88 10.651 13.486 17.855 22.367 6-9.728 8.927-14.52 14.927-24.246 6.685-.351 9.965-.517 16.65-.847 1.205 24.41 1.724 36.534 2.928 60.945-7.889.351-11.855.516-19.744 1.033-.519-8.716-.685-13.135-1.204-22.016-4.63 7.518-7.038 11.442-11.502 18.938-5.502-7-8.242-10.574-13.723-17.575.519 8.715.851 13.135 1.37 21.85-7.889.517-11.855.682-19.578 1.363-1.723-24.41-2.574-36.534-4.297-60.945l-.353.351.021-.02zm15.446 52.746c-1.038-16.729-1.723-25.093-2.741-41.986 9.26 11.441 13.724 17.08 22.838 28.5 7.557-12.453 11.501-18.608 19.225-30.896.851 16.728 1.204 25.258 2.055 41.986h2.408c-.851-18.608-1.37-27.819-2.242-46.426h-2.408c-7.723 12.453-11.668 18.773-19.225 31.247a3093.22 3093.22 0 00-22.837-28.852h-2.409c1.204 18.608 1.89 27.82 3.094 46.262h2.408l-.166.165zM263.169 2.56c14.761-.68 22.318-.846 37.079-1.362.167 6.485.353 9.562.519 16.047-6.685.165-10.131.35-16.816.516 0 2.726 0 4.09.166 6.836 6.706-.165 9.965-.351 16.65-.516.167 6.154.353 9.045.52 15.2-6.52.165-9.966.35-16.485.516 0 2.912 0 4.275.166 7.001 6.872-.165 10.464-.351 17.336-.516.166 6.485.353 9.562.519 16.047-14.761.35-22.152.681-36.914 1.363-1.038-24.411-1.536-36.534-2.574-60.945l-.166-.166v-.02zm32.45 52.582v-2.21c-7.371.165-11.149.351-18.54.681-.332-8.013-.519-11.957-.685-19.97 7.038-.352 10.65-.352 17.688-.682v-2.21c-7.038.165-10.65.351-17.688.682-.353-7.848-.519-11.772-.685-19.806 7.557-.35 11.335-.35 18.892-.681v-2.21c-8.574.35-12.705.35-21.28.681.685 18.608 1.038 27.82 1.889 46.427 8.409-.351 12.54-.517 20.948-.682h-.519l-.02-.02zm24.186-38.248c-4.629 0-6.872 0-11.501.35 0-6.484-.166-9.561-.353-16.046C325.639.682 334.38.516 351.902.35v16.047H340.4c.167 18.091.353 26.972.686 45.063-8.077 0-12.187.166-20.263.352-.333-18.092-.519-26.973-1.038-45.064v.165l.02-.02zm12.187 37.546c-.353-17.761-.519-26.456-.851-44.217 5.315 0 8.076 0 13.391-.165v-2.21c-11.668 0-17.689.165-29.356.516v2.21c5.314 0 8.076-.165 13.391-.351.352 17.76.519 26.456.851 44.217h2.574zm76.236-16.378c0 4.275-.851 7.848-2.409 10.76a20.727 20.727 0 01-6.186 7.166c-2.575 1.88-5.502 3.078-8.928 3.925-3.425.846-7.038 1.197-10.982 1.197h-19.744c-.166-24.41-.332-36.699-.519-61.11h20.097v14.519c3.944 0 7.723.516 11.148 1.363 3.426.846 6.519 2.21 9.094 4.089 2.574 1.88 4.63 4.275 6 7.166 1.536 2.912 2.221 6.485 2.055 10.76l.332.165h.042zm-9.094 0c0-2.726-.519-5.121-1.37-7.166-1.038-2.045-2.242-3.759-4.111-4.957-1.723-1.363-3.778-2.21-6.186-2.912-2.409-.681-4.983-1.032-7.89-1.032h-8.242V7.517h-2.408c0 18.608 0 27.82.166 46.427h10.464c2.74 0 5.314-.351 7.723-1.033 2.408-.681 4.463-1.528 6.187-2.912 1.723-1.198 3.093-2.912 4.131-4.956 1.038-2.045 1.536-4.44 1.536-7.167v.186zm-2.574 0c0 2.561-.519 4.771-1.37 6.65a11.253 11.253 0 01-3.779 4.275c-1.536 1.033-3.259 1.715-5.315 2.21-2.055.517-4.131.682-6.353.682h-8.076V24.39h8.076c2.222 0 4.464.166 6.353.682 2.056.516 3.779 1.198 5.315 2.21 1.537 1.032 2.741 2.395 3.779 4.275.851 1.714 1.37 3.924 1.37 6.65v-.165.02zm-16.817 6.65h.852c2.574 0 4.463-.516 5.667-1.714 1.205-1.198 1.724-2.912 1.724-4.956 0-2.045-.519-3.76-1.724-4.957-1.204-1.198-3.093-1.714-5.667-1.714h-.852v13.486-.165.02zM417.675.516c14.927.166 22.318.351 37.079.682-.166 6.485-.353 9.562-.519 16.047-6.706-.166-10.131-.351-16.816-.351v6.836c6.685 0 9.965.165 16.65.35 0 6.155-.166 9.046-.332 15.2-6.519-.164-9.965-.35-16.484-.35v7c6.872 0 10.463.166 17.335.352-.166 6.485-.332 9.562-.519 16.047-14.761-.351-22.152-.517-36.913-.682.332-24.41.519-36.699.851-61.11h-.332v-.02zm29.356 54.295v-2.21c-7.37-.165-11.149-.35-18.54-.35 0-8.014.166-11.958.353-19.971 7.038 0 10.651.165 17.689.35v-2.209c-7.038-.165-10.651-.165-17.689-.351 0-7.848.166-11.772.333-19.806 7.557 0 11.335.166 18.892.351v-2.21c-8.574-.165-12.706-.35-21.28-.516a34231 34231 0 00-.851 46.427c8.408 0 12.54.165 20.948.516h.166l-.021-.02zm18.54-53.283c9.778.351 14.761.516 24.726.847 3.094 0 6 .516 8.574 1.363 2.575.847 4.817 1.88 6.519 3.408 1.724 1.363 3.094 3.242 4.111 5.287a15.942 15.942 0 011.204 7.166c0 2.045-.332 3.593-1.038 4.956-.519 1.364-1.204 2.396-1.723 3.408-.685 1.033-1.536 1.88-2.408 2.561 1.37.847 2.574 2.045 3.612 3.408a21.698 21.698 0 012.409 4.44c.685 1.88 1.038 3.924.851 6.485 0 2.912-.851 5.638-1.889 7.848-1.205 2.395-2.741 4.275-4.817 5.803-2.055 1.528-4.464 2.726-7.204 3.593-2.741.682-6 1.033-9.447.847-10.131-.35-15.114-.516-25.058-.846.685-24.412 1.204-36.7 1.889-61.11l-.353.516.042.02zm20.948 54.46c5.501.166 9.446-.846 12.186-2.912 2.741-2.21 4.111-5.287 4.298-9.045 0-2.561-.353-4.44-1.37-5.969-1.038-1.528-2.056-2.912-3.26-3.759-1.536-1.032-3.259-1.714-4.982-2.21 1.536-.35 2.906-1.032 4.11-1.879 1.038-.681 2.056-1.88 2.928-3.077.851-1.363 1.37-3.077 1.536-5.122.166-3.924-1.038-6.836-3.426-8.88-2.408-2.045-5.834-3.243-10.131-3.408-5.502-.165-8.076-.35-13.557-.516-.685 18.608-1.038 27.819-1.557 46.426 5.315.166 8.076.351 13.391.517l-.166-.166zm-9.966-25.774c.353-7.517.353-11.276.685-18.773 4.464 0 6.685.165 11.17.351 4.111 0 7.038 1.198 8.761 2.912 1.723 1.88 2.574 4.09 2.408 7.002 0 2.726-1.038 5.121-2.906 6.65-1.889 1.714-4.817 2.395-8.928 2.21-4.463-.166-6.685-.352-10.982-.352h-.208zm-.851 23.214c.332-8.365.519-12.64.685-21.004 4.298 0 6.519.165 10.983.351a17.8 17.8 0 015.315.847c1.723.516 3.093 1.198 4.297 2.044 1.204.847 2.056 2.045 2.741 3.408s.851 2.912.851 4.77c0 3.76-1.536 6.32-4.111 7.849-2.574 1.528-5.834 2.21-9.965 2.044-4.298-.165-6.519-.165-10.817-.35l.021.04zm15.612-32.445c0-2.726-1.37-4.275-4.463-4.44h-2.222c0 3.407-.166 5.121-.353 8.364h2.222c3.093 0 4.816-1.198 4.816-3.924zM485.481 48.8c4.629.166 7.204-1.528 7.204-4.956 0-3.594-2.056-5.473-6.872-5.638h-2.222c0 4.275-.166 6.32-.353 10.574h2.222l.021.02zm34.504-14.497c.166-4.956 1.37-9.21 3.259-13.134 1.89-3.76 4.464-7.167 7.723-9.728 3.094-2.726 6.872-4.605 10.983-5.803 4.132-1.198 8.408-1.714 13.038-1.528 3.613.165 6.685.846 9.447 1.714 2.74.847 5.148 1.88 7.038 2.726a57.378 57.378 0 015.833 3.593c-4.463 6.485-6.705 9.728-10.982 16.213-.851-.847-2.056-1.715-3.094-2.396-1.038-.516-2.242-1.198-3.612-1.714-1.37-.517-3.094-.847-4.983-1.033-1.889 0-3.778 0-5.315.682-1.723.516-3.093 1.363-4.463 2.395-1.204 1.033-2.222 2.396-3.094 3.924-.851 1.529-1.204 3.078-1.37 4.957 0 1.714 0 3.407.685 5.122.685 1.528 1.537 3.077 2.741 4.275 1.204 1.198 2.574 2.21 4.11 3.077 1.537.867 3.426 1.198 5.502 1.363 2.055 0 3.779 0 5.315-.351 1.536-.351 2.927-.847 3.945-1.363 1.204-.516 2.408-1.363 3.425-2.21 3.426 7.001 5.149 10.574 8.575 17.575-1.724 1.198-3.779 2.396-6.187 3.077a55.412 55.412 0 01-7.204 1.88c-2.741.516-6 .681-9.613.516-4.816-.351-9.093-1.363-13.225-3.077-3.944-1.714-7.391-4.09-10.131-7.167-2.741-2.912-4.983-6.484-6.353-10.408-1.536-4.09-2.056-8.365-1.889-13.135h-.167l.063-.042zm11.668.682c0-2.912.851-5.638 2.055-8.199 1.204-2.56 2.74-4.606 4.817-6.485 2.055-1.714 4.297-3.077 7.038-4.089 2.74-.847 5.833-1.363 9.093-1.033 1.536 0 3.093.351 4.298.682 1.204.351 2.408.681 3.259 1.032 1.038.352 1.889.847 2.574 1.198.52-.846.852-1.198 1.537-2.044-1.038-.517-2.056-1.033-3.094-1.363-1.038-.351-2.242-.682-3.612-1.033-1.37-.351-2.927-.516-4.817-.681-3.259-.166-6.353 0-9.259 1.032-2.928.847-5.668 2.396-7.889 4.275-2.409 1.88-4.298 4.275-5.834 7.167-1.537 2.912-2.409 5.968-2.575 9.562-.166 3.593.353 6.836 1.371 9.727 1.038 2.912 2.74 5.473 4.795 7.683 2.056 2.21 4.63 3.924 7.557 5.121 2.928 1.198 6 2.045 9.281 2.21h4.982c1.537-.165 2.741-.516 3.779-.681 1.204-.352 2.242-.682 3.259-1.198-.519-.847-.685-1.363-1.204-2.21-.851.516-1.889.847-2.927 1.198-.851.35-2.055.516-3.426.681-1.37.166-2.906.166-4.629 0-3.426-.165-6.353-1.032-9.094-2.21-2.574-1.197-4.796-2.911-6.685-4.956-1.889-2.045-3.093-4.275-3.945-7.001-.851-2.561-1.204-5.473-1.038-8.364h.333v-.021zm53.729-27.137c8.077.681 12.187.847 20.429 1.528-.353 4.606-.519 6.836-1.038 11.442 4.464-4.276 6.706-6.32 11.17-10.574 10.464.846 15.799 1.363 26.263 2.395-12.706 10.925-18.893 16.398-31.412 27.323 10.817 13.321 16.132 20.136 26.616 33.622-10.651-1.032-16.131-1.528-26.782-2.395-3.612-5.122-5.315-7.683-8.927-12.805-.353 4.77-.519 7.167-1.038 11.958-7.89-.682-12.021-1.033-19.91-1.528 1.889-24.411 2.74-36.534 4.629-60.945v-.021zm9.447 32.094c8.761 9.727 13.225 14.518 21.799 24.41 1.37 0 2.055.166 3.426.352-9.094-10.244-13.724-15.2-23.17-25.444 10.132-8.364 15.28-12.64 25.578-21.003-1.37 0-2.055-.166-3.426-.351-9.778 8.199-14.595 12.123-24.207 20.487.685-8.88 1.038-13.321 1.723-22.202-1.038 0-1.536 0-2.408-.165-1.537 18.443-2.243 27.819-3.613 46.262 1.038 0 1.37 0 2.409.165l1.723-22.367.166-.165v.02zm100.942 39.962c-7.724-.847-11.502-1.363-19.225-2.21 1.038-9.397 1.536-14.002 2.574-23.213-7.889 8.53-11.668 12.804-19.391 21.5-6.519-.682-9.778-1.033-16.131-1.715 2.408-24.246 3.612-36.534 6-60.78 7.889.847 11.854 1.198 19.744 2.045-1.039 9.396-1.537 14.002-2.575 23.378 7.889-8.715 11.834-12.97 19.744-21.499 6.519.682 9.779 1.198 16.484 1.88-2.906 24.245-4.297 36.368-7.204 60.593l-.02.021zm-7.724-8.199c2.056-18.442 3.26-27.653 5.315-46.096-1.038 0-1.536 0-2.408-.351-14.242 15.365-21.28 23.213-35.356 38.744 1.723-16.894 2.574-25.258 4.297-42.172-1.038 0-1.536 0-2.408-.166-1.889 18.443-2.927 27.654-4.817 46.262 1.038 0 1.371 0 2.409.165 13.91-15.53 20.948-23.379 35.19-38.744-1.889 16.894-2.927 25.258-4.817 41.986 1.038 0 1.371 0 2.409.351h.166l.02.021zm70.547 16.212c-7.723-1.033-11.502-1.529-19.225-2.561 1.204-9.211 1.889-14.002 3.093-23.213-8.076 8.364-12.02 12.639-19.91 21.003-6.519-.847-9.612-1.198-16.131-2.045 2.927-24.245 4.464-36.368 7.391-60.594 7.889 1.033 11.834 1.363 19.578 2.396-1.204 9.397-1.89 14.002-3.094 23.379 8.076-8.365 12.187-12.64 20.263-21.004 6.519.847 9.779 1.363 16.485 2.21a47542.53 47542.53 0 01-8.575 60.429h.166-.041zm-7.557-8.365c2.574-18.442 3.778-27.653 6.353-45.93-1.038 0-1.537-.166-2.409-.351-14.595 15.014-21.965 22.697-36.228 37.897 2.055-16.729 3.26-25.258 5.315-41.987-1.038 0-1.536-.165-2.408-.35-2.409 18.442-3.426 27.653-5.834 46.095 1.038 0 1.37.166 2.408.351 14.242-15.2 21.467-22.882 36.228-37.897-2.408 16.729-3.425 25.093-5.834 41.987 1.038 0 1.371.165 2.409.35v-.165zm-10.132-58.714a16.788 16.788 0 01-6.353-2.21c-1.536-1.198-2.927-2.56-3.778-4.09-.851-1.527-1.37-3.076-1.723-4.77-.166-1.528-.353-3.077 0-4.275 3.425.516 5.148.682 8.408 1.033 0 1.032 0 1.88.353 2.395.166.682.685 1.198 1.37 1.88.685.516 1.536 1.032 2.741 1.198 1.204 0 2.221 0 2.927-.351.685-.351 1.204-.847 1.723-1.364a5.429 5.429 0 001.038-2.21c3.426.517 5.149.682 8.408 1.199 0 1.197-.519 2.56-1.204 4.089a16.426 16.426 0 01-2.74 4.275c-1.204 1.363-2.741 2.21-4.63 3.077-1.889.681-4.111.847-6.706.516l.166-.35v-.042zm.519-3.594c1.89.166 3.26 0 4.464-.35 1.204-.517 2.242-1.033 2.907-1.715a10.775 10.775 0 002.055-2.912c-.519.682-1.204 1.363-2.222 1.88-.685.516-1.723.846-2.927 1.197-1.204.351-2.574.351-4.111 0-1.536-.165-2.927-.681-3.944-1.197-1.038-.682-1.89-1.198-2.409-1.88a6.865 6.865 0 01-1.536-2.396c0 1.198.519 2.21 1.204 3.243.519.847 1.371 1.714 2.409 2.396 1.038.681 2.408 1.197 4.297 1.528l-.166.165-.021.041z" fill="#D64000"/></svg>