<svg width="143" height="98" fill="none" xmlns="http://www.w3.org/2000/svg"><path fill-rule="evenodd" clip-rule="evenodd" d="M5.742 58.2C5.788 25.99 35.255-.069 71.542 0c36.299.057 65.687 26.218 65.618 58.427l-.045 3.234.057 9.738.057 6.037c0 3.006-.936 5.762-2.737 7.995-1.551 1.913-5.178 5.125-12.088 5.125h-.65c-1.688 0-3.08-.023-4.699-.046h-.296c-2.224-.034-5.018-.08-9.682-.09h-3.285a125.066 125.066 0 00-23.64 2.22l-.091.011c-1.026.228-3.775.877-5.383 1.401l-2.85.911-2.874-.774c-2.669-.729-5.36-1.412-5.84-1.503-2.451-.513-11.323-2.153-23.354-2.164h-.41c-6.775.011-10.242.08-13.013.125h-.285c-1.79.034-3.318.068-5.291.068h-.046c-8.724 0-14.813-5.353-14.848-12.983l-.114-15.809-.011-3.724z" fill="#001689"/><path fill-rule="evenodd" clip-rule="evenodd" d="M5.73 64.235C5.81 31.457 35.323 7.973 71.587 8.041c36.253.068 65.698 23.644 65.641 56.468v.524l-131.487.262v-1.037l-.011-.023z" fill="#FEFEFE"/><path fill-rule="evenodd" clip-rule="evenodd" d="M71.451 9.487c-24.222 0-45.364 10.638-56.335 27.585 5.61 13.838 29.262 24.26 57.59 24.305 26.799.045 49.424-9.191 56.608-21.868-10.491-18.325-32.41-29.976-57.737-30.033h-.114" fill="url(#paint0_radial_189_1036)"/><path fill-rule="evenodd" clip-rule="evenodd" d="M100.885 33.439c-2.851-1.936-9.317-6.674-12.67-7.608-5.007-1.412-10.606 2.927-13.662 3.53-3.045.57-5.269-3.052-8.097-3.109-2.28-.045-13.32 4.374-16.421 5.536l6.785 2.892c.935.604 26.16 6.094 45.57.57l-1.505-1.822v.01z" fill="#FEFEFE"/><path fill-rule="evenodd" clip-rule="evenodd" d="M50.035 31.788c3.102-1.162 14.14-5.581 16.421-5.536 1.232.012 2.35.718 3.467 1.47-1.597-.422-4.402-2.164-5.656.774-.639 1.503-1.71 4.75-3.034 5.216-3.307 1.709-11.198-1.925-11.198-1.925z" fill="#3EBFEF"/><path fill-rule="evenodd" clip-rule="evenodd" d="M79.183 29.726c2.611-1.424 3.375-2.597 3.786-3.69-3.387.922-7.093 3.291-8.906 3.371-.628.023-1.004-.091-1.472-.216-.136.683-.798 2.027-1.197 2.824-.775 1.595-2.509 2.278-3.718 3.223l-.022.035c2.11.797 3.888 2.96 6.055 2.585l.992-.456c.4-1.39 1.448-6.036 4.482-7.687" fill="#EBF6FC"/><path fill-rule="evenodd" clip-rule="evenodd" d="M83.665 25.854c-2.486.637-5.816 2.198-7.732 3.052-.775.353.194 3.007.285 4.18a7.078 7.078 0 013.136-3.052c2.293-1.242 3.501-2.016 3.843-2.985l.388-1.013.08-.194v.012z" fill="#93D5F5"/><mask id="a" style="mask-type:luminance" maskUnits="userSpaceOnUse" x="7" y="9" width="129" height="55"><path d="M7.112 63.837l128.749-.274c-.502-31.593-29.125-54.007-64.283-54.076h-.114c-35.307 0-64.056 22.585-64.364 54.35h.012z" fill="#fff"/></mask><g mask="url(#a)"><path fill-rule="evenodd" clip-rule="evenodd" d="M2.208 30.535s6.1-.33 34.37-5.08c12.956-2.175 31.293 12.733 42.378 11.39 11.073-1.367 26.742-6.47 38.203-6.789 9.613-.273 19.101 4.135 19.101 4.135l-.045 23.985-134.064-.239.057-27.402z" fill="#006F3F"/></g><mask id="b" style="mask-type:luminance" maskUnits="userSpaceOnUse" x="7" y="9" width="129" height="55"><path d="M7.112 63.837l128.749-.274c-.502-31.593-29.125-54.007-64.283-54.076h-.114c-35.307 0-64.056 22.585-64.364 54.35h.012z" fill="#fff"/></mask><g mask="url(#b)"><path fill-rule="evenodd" clip-rule="evenodd" d="M2.127 40.865s36.926-.718 49.824-3.36c11.096-2.267 20.812 2.756 26.411 2.699 5.6-.046 8.553-3.246 20.037-3.075 13.536.194 37.884 4.453 37.884 4.453l-.08 16.73-134.041-.227-.035-17.22z" fill="#FFEC00"/></g><mask id="c" style="mask-type:luminance" maskUnits="userSpaceOnUse" x="7" y="9" width="129" height="55"><path d="M7.112 63.837l128.749-.274c-.502-31.593-29.125-54.007-64.283-54.076h-.114c-35.307 0-64.056 22.585-64.364 54.35h.012z" fill="#fff"/></mask><g mask="url(#c)"><path fill-rule="evenodd" clip-rule="evenodd" d="M2.104 49.657s36.174-8.086 49.642-9.965c11.244-1.572 21.667 2.676 27.278 2.619 5.588-.045 7.982-2.528 19.477-2.358 13.537.194 37.781 7.916 37.781 7.916l2.965 17.79-137.12.205-.023-16.196v-.01z" fill="#81B82E"/></g><path fill-rule="evenodd" clip-rule="evenodd" d="M68.725 96.763c-2.907-.763-5.815-1.492-6.34-1.595a137.402 137.402 0 00-25.317-2.3h-.444c-7.333 0-11.085.091-14.096.148h-.319c-1.927.034-3.592.068-5.736.068h-.034C6.973 93.073.37 87.401.336 79.314L.222 62.539a12.98 12.98 0 014.722-10.227c2.03-1.697 5.633-3.69 11.335-3.69h.935c1.71 0 3.17.023 4.824.045h.33c2.099.035 5.27.091 10.606.103h3.479a136.89 136.89 0 0025.67-2.37 75.012 75.012 0 005.873-1.48l3.341-1.047 3.341 1.025c1.757.546 4.756 1.252 5.896 1.48 2.669.524 12.407 2.267 25.271 2.278h.456c7.322 0 11.062-.068 14.061-.137h.069c2.007-.034 3.751-.057 6.021-.068h.091c9.408.011 16.011 5.694 16.068 13.815l.057 10.33.057 6.39c0 3.2-1.026 6.127-2.965 8.484-1.688 2.028-5.622 5.433-13.091 5.445h-.707c-1.848 0-3.342-.023-5.098-.046h-.308c-2.44-.046-5.451-.091-10.514-.103h-3.558c-13 .023-22.842 1.8-25.613 2.347l-.103.034c-1.118.216-4.105.934-5.839 1.469l-3.09.968-3.114-.82z" fill="#E52329"/><path fill-rule="evenodd" clip-rule="evenodd" d="M70.3 90.681c-.046-.011-5.531-1.446-6.672-1.674-2.794-.558-12.932-2.392-26.537-2.415h-.456c-7.424.012-11.187.08-14.22.137h-.342c-1.905.046-3.536.069-5.588.069h-.058c-3.067 0-5.713-.832-7.48-2.347a6.538 6.538 0 01-2.315-5.17l-.114-16.788c0-2.164.832-4.02 2.451-5.364 1.22-1.026 3.501-2.244 7.322-2.233h.912c1.7 0 3.182.023 4.755.046h.32c4.724.098 9.45.132 14.175.102 9.029.02 18.04-.811 26.913-2.482 1.277-.262 4.47-1.003 6.523-1.652l1.46-.455 1.47.455c2.076.626 5.315 1.367 6.524 1.617 2.816.57 13.046 2.392 26.479 2.403l.491.012c7.367 0 11.141-.08 14.175-.137h.068c1.985-.045 3.707-.08 5.908-.08h.068c3.045 0 5.702.843 7.447 2.347a6.656 6.656 0 012.337 5.24l.057 10.317.069 6.412c0 1.709-.525 3.212-1.517 4.43-.981 1.185-3.353 3.156-8.279 3.178h-.684l-4.79-.056-.513-.012c-2.452-.034-5.497-.08-10.594-.091h-3.581a144.36 144.36 0 00-26.856 2.471l-.148.035a78.525 78.525 0 00-6.444 1.64l-1.345.41-1.392-.365z" fill="#FEFEFE"/><path fill-rule="evenodd" clip-rule="evenodd" d="M125.893 59.907h5.439l-.034 20.364h-5.303V79.03c-.844.99-2.178 1.64-4.094 1.651-4.082 0-5.838-4.282-5.907-8.462v-.273c-.023-3.326 1.62-7.597 6.067-7.62 1.665 0 3.364.422 3.786 1.276h.046v-5.695zm-34.44 4.363h.388l.388.022c2.52.16 5.12 1.15 5.245 4.636v.273l-.011 11.014-4.824-.012-.011-1.207-.171.17-.171.172a4.484 4.484 0 01-3.08 1.298c-3.193.011-5.109-1.276-5.131-4.556 0-2.767 1.881-3.952 3.866-4.67l.456-.159.456-.148 1.517-.433.387-.114c1.004-.319 1.711-.672 1.688-1.31-.034-1.024-.89-1.184-1.733-1.184h-.137c-1.483 0-2.589.422-3.912 1.082l-1.414.74.343-3.895c1.676-1.458 3.66-1.708 5.861-1.708v-.011zm-38.728-.035h.286l.581.023c1.312.057 2.737.25 3.513.74l.16.114v4.875c-.765-.66-2.977-.797-3.593-.718-1.642.262-2.965 1.185-2.965 3.497 0 1.902.855 3.428 2.851 3.44 1.505 0 3.033-.342 3.592-.638l.103-.057-.023 4.521c-.479.217-1.562.342-2.623.422l-.696.057-.342.011-.604.023-.684.022c-5.246 0-6.934-3.838-6.957-8.131-.022-4.852 2.395-8.212 7.413-8.2h-.012zm-16.307-.022c.228 0 .456 0 .707.022l.365.046.365.057.376.068.377.103c2.657.717 5.45 2.893 5.45 7.756 0 6.264-4.595 8.268-7.606 8.268l-.524-.011-.354-.034c-2.965-.342-6.808-2.529-6.808-8.189.011-5.683 3.832-7.7 6.785-8.04l.365-.035.513-.011h-.011zm73.247.045c2.532 0 4.926 1.583 4.949 5.194l-.022 10.785h-5.463l.034-8.507c0-1.948-.502-2.654-1.984-2.654-1.266 0-2.098.683-2.087 2.597l-.011 8.541h-5.463l.034-15.455h5.451v1.413l.115-.148c1.003-1.413 2.337-1.766 4.424-1.766h.023zm-32.797-4.442l5.2.012-.035 20.352h-5.428l.023-20.352h.228l.012-.012zm-17.403-.022l5.36.011v6.48l.126-.182c.992-1.412 2.314-1.776 4.39-1.776 2.543 0 4.892 1.583 4.915 5.182l-.023 10.66h-5.36v-8.371c0-1.948-.501-2.642-1.995-2.642-1.255 0-2.03.717-2.019 2.62l-.023 8.382h-5.405l.034-20.364zm-47.326-.08h5.451l-.011 7.027h4.037l.011-7.016 5.463.012-.046 20.352-5.44-.011v-7.893H17.58l-.012 7.881h-5.473l.045-20.352zm80.956 13.223c0 .148-.182.262-.479.353l-.285.09-.912.24-.616.194-.433.148c-.616.25-1.437.683-1.449 1.708.012.911.958 1.321 1.54 1.321.536 0 .992-.125 1.368-.353l.16-.114c.582-.341.924-.968 1.05-1.879l.022-.228c.046-.455.068-.934.034-1.48zm30.198-4.214c-1.027 0-2.783.706-2.783 3.724.023 2.984 1.779 3.69 2.805 3.69 1.027 0 2.623-.706 2.623-3.724-.034-3.007-1.619-3.69-2.645-3.69zm-86.898 0c-1.163 0-2.942.66-2.93 3.53 0 2.87 1.801 3.531 2.964 3.531 1.164 0 2.965-.672 2.943-3.53-.023-2.87-1.802-3.531-2.965-3.531h-.012z" fill="#001689"/><defs><radialGradient id="paint0_radial_189_1036" cx="0" cy="0" r="1" gradientUnits="userSpaceOnUse" gradientTransform="scale(2317.86 5489.31) rotate(-90 -.09 -.952)"><stop stop-color="#F3FBFF"/><stop offset=".535" stop-color="#DDF1FB"/><stop offset=".668" stop-color="#C6E8F9"/><stop offset="1" stop-color="#80CFF3"/></radialGradient></defs></svg>